<svg width="260" height="159" viewBox="0 0 260 159" fill="#C4C4C4" xmlns="http://www.w3.org/2000/svg">
<rect x="0" y="0" width="260" height="159" fill="#C4C4C4" stroke="#989898"/>
<path d="M129.773 75.2056C127.644 75.2056 125.907 74.5352 124.561 73.1945C123.216 71.8538 122.543 70.1228 122.543 68.0016C122.543 65.8803 123.216 64.1466 124.561 62.8002C125.907 61.4539 127.644 60.7808 129.773 60.7808C131.902 60.7808 133.649 61.4539 135.014 62.8002C136.379 64.1466 137.062 65.8803 137.062 68.0016C137.062 70.1228 136.379 71.8538 135.014 73.1945C133.649 74.5352 131.902 75.2056 129.773 75.2056ZM119.399 90.5371C118.295 90.5371 117.371 90.1593 116.627 89.4037C115.883 88.6481 115.511 87.7346 115.511 86.663V85.5502C115.511 84.3413 115.823 83.2778 116.447 82.3596C117.072 81.4415 117.89 80.7466 118.903 80.2749C120.806 79.4231 122.646 78.7843 124.425 78.3584C126.204 77.9326 127.986 77.7196 129.771 77.7196C131.611 77.7196 133.41 77.9394 135.169 78.379C136.927 78.8187 138.744 79.4506 140.619 80.2749C141.667 80.7145 142.508 81.3945 143.142 82.315C143.776 83.2354 144.094 84.3138 144.094 85.5502V86.663C144.094 87.7346 143.718 88.6481 142.966 89.4037C142.214 90.1593 141.28 90.5371 140.164 90.5371H119.399Z" fill="#3E3E3E"/>
</svg>